<mxfile host="app.diagrams.net" modified="2024-05-27T12:50:58.486Z" agent="Mozilla/5.0 (Windows NT 10.0; Win64; x64; rv:126.0) Gecko/20100101 Firefox/126.0" etag="Jr2MWsjsSYomCPmjiuEK" version="24.4.9" type="github">
  <diagram name="Pagina-1" id="fvYqxe4pIWD3eZ9eRgZS">
    <mxGraphModel dx="1434" dy="1915" grid="1" gridSize="10" guides="1" tooltips="1" connect="1" arrows="1" fold="1" page="1" pageScale="1" pageWidth="827" pageHeight="1169" math="0" shadow="0">
      <root>
        <mxCell id="0" />
        <mxCell id="1" parent="0" />
        <mxCell id="ENTtIncBovZt0sLsYfHK-17" style="edgeStyle=orthogonalEdgeStyle;rounded=0;orthogonalLoop=1;jettySize=auto;html=1;entryX=0.75;entryY=0;entryDx=0;entryDy=0;fontSize=32;" parent="1" source="ENTtIncBovZt0sLsYfHK-1" target="ENTtIncBovZt0sLsYfHK-13" edge="1">
          <mxGeometry relative="1" as="geometry" />
        </mxCell>
        <mxCell id="ENTtIncBovZt0sLsYfHK-1" value="x" style="whiteSpace=wrap;html=1;aspect=fixed;fontSize=32;" parent="1" vertex="1">
          <mxGeometry x="260" width="80" height="80" as="geometry" />
        </mxCell>
        <mxCell id="ENTtIncBovZt0sLsYfHK-18" style="edgeStyle=orthogonalEdgeStyle;rounded=0;orthogonalLoop=1;jettySize=auto;html=1;entryX=0.25;entryY=0;entryDx=0;entryDy=0;fontSize=32;" parent="1" source="ENTtIncBovZt0sLsYfHK-2" target="ENTtIncBovZt0sLsYfHK-14" edge="1">
          <mxGeometry relative="1" as="geometry" />
        </mxCell>
        <mxCell id="ENTtIncBovZt0sLsYfHK-2" value="x" style="whiteSpace=wrap;html=1;aspect=fixed;fontSize=32;" parent="1" vertex="1">
          <mxGeometry x="380" width="80" height="80" as="geometry" />
        </mxCell>
        <mxCell id="ENTtIncBovZt0sLsYfHK-19" style="edgeStyle=orthogonalEdgeStyle;rounded=0;orthogonalLoop=1;jettySize=auto;html=1;entryX=0.25;entryY=0;entryDx=0;entryDy=0;fontSize=32;" parent="1" source="ENTtIncBovZt0sLsYfHK-13" target="ENTtIncBovZt0sLsYfHK-15" edge="1">
          <mxGeometry relative="1" as="geometry" />
        </mxCell>
        <mxCell id="ENTtIncBovZt0sLsYfHK-13" value="+" style="whiteSpace=wrap;html=1;aspect=fixed;fontSize=32;" parent="1" vertex="1">
          <mxGeometry x="240" y="160" width="80" height="80" as="geometry" />
        </mxCell>
        <mxCell id="ENTtIncBovZt0sLsYfHK-20" style="edgeStyle=orthogonalEdgeStyle;rounded=0;orthogonalLoop=1;jettySize=auto;html=1;entryX=0.75;entryY=0;entryDx=0;entryDy=0;fontSize=32;" parent="1" source="ENTtIncBovZt0sLsYfHK-14" target="ENTtIncBovZt0sLsYfHK-15" edge="1">
          <mxGeometry relative="1" as="geometry" />
        </mxCell>
        <mxCell id="ENTtIncBovZt0sLsYfHK-14" value="+" style="whiteSpace=wrap;html=1;aspect=fixed;fontSize=32;" parent="1" vertex="1">
          <mxGeometry x="400" y="160" width="80" height="80" as="geometry" />
        </mxCell>
        <mxCell id="ENTtIncBovZt0sLsYfHK-21" style="edgeStyle=orthogonalEdgeStyle;rounded=0;orthogonalLoop=1;jettySize=auto;html=1;entryX=0;entryY=1;entryDx=0;entryDy=0;fontSize=32;" parent="1" source="ENTtIncBovZt0sLsYfHK-15" target="ENTtIncBovZt0sLsYfHK-39" edge="1">
          <mxGeometry relative="1" as="geometry">
            <mxPoint x="600" y="600" as="targetPoint" />
            <Array as="points">
              <mxPoint x="360" y="480" />
            </Array>
          </mxGeometry>
        </mxCell>
        <mxCell id="ENTtIncBovZt0sLsYfHK-15" value="+" style="whiteSpace=wrap;html=1;aspect=fixed;fontSize=32;" parent="1" vertex="1">
          <mxGeometry x="320" y="320" width="80" height="80" as="geometry" />
        </mxCell>
        <mxCell id="ENTtIncBovZt0sLsYfHK-72" style="edgeStyle=orthogonalEdgeStyle;rounded=0;orthogonalLoop=1;jettySize=auto;html=1;entryX=0.75;entryY=0;entryDx=0;entryDy=0;fontSize=32;" parent="1" source="ENTtIncBovZt0sLsYfHK-73" target="ENTtIncBovZt0sLsYfHK-74" edge="1">
          <mxGeometry relative="1" as="geometry" />
        </mxCell>
        <mxCell id="ENTtIncBovZt0sLsYfHK-73" value="x" style="whiteSpace=wrap;html=1;aspect=fixed;fontSize=32;" parent="1" vertex="1">
          <mxGeometry x="320" y="720" width="80" height="80" as="geometry" />
        </mxCell>
        <mxCell id="ENTtIncBovZt0sLsYfHK-113" style="edgeStyle=orthogonalEdgeStyle;rounded=0;orthogonalLoop=1;jettySize=auto;html=1;entryX=0.5;entryY=0;entryDx=0;entryDy=0;fontSize=32;" parent="1" source="ENTtIncBovZt0sLsYfHK-74" target="ENTtIncBovZt0sLsYfHK-112" edge="1">
          <mxGeometry relative="1" as="geometry" />
        </mxCell>
        <mxCell id="ENTtIncBovZt0sLsYfHK-74" value="+" style="whiteSpace=wrap;html=1;aspect=fixed;fontSize=32;" parent="1" vertex="1">
          <mxGeometry x="300" y="880" width="80" height="80" as="geometry" />
        </mxCell>
        <mxCell id="ENTtIncBovZt0sLsYfHK-136" style="edgeStyle=orthogonalEdgeStyle;rounded=0;orthogonalLoop=1;jettySize=auto;html=1;entryX=0.75;entryY=1;entryDx=0;entryDy=0;fontSize=32;" parent="1" source="ENTtIncBovZt0sLsYfHK-75" target="ENTtIncBovZt0sLsYfHK-105" edge="1">
          <mxGeometry relative="1" as="geometry">
            <Array as="points">
              <mxPoint x="100" y="1200" />
              <mxPoint x="270" y="1200" />
            </Array>
          </mxGeometry>
        </mxCell>
        <mxCell id="ENTtIncBovZt0sLsYfHK-75" value="" style="rounded=0;whiteSpace=wrap;html=1;fontSize=32;" parent="1" vertex="1">
          <mxGeometry x="60" y="1120" width="80" height="40" as="geometry" />
        </mxCell>
        <mxCell id="ENTtIncBovZt0sLsYfHK-107" style="edgeStyle=orthogonalEdgeStyle;rounded=0;orthogonalLoop=1;jettySize=auto;html=1;entryX=0.25;entryY=1;entryDx=0;entryDy=0;fontSize=32;" parent="1" source="ENTtIncBovZt0sLsYfHK-76" target="ENTtIncBovZt0sLsYfHK-105" edge="1">
          <mxGeometry relative="1" as="geometry">
            <Array as="points">
              <mxPoint x="260" y="1180" />
              <mxPoint x="310" y="1180" />
            </Array>
          </mxGeometry>
        </mxCell>
        <mxCell id="ENTtIncBovZt0sLsYfHK-76" value="" style="rounded=0;whiteSpace=wrap;html=1;fontSize=32;" parent="1" vertex="1">
          <mxGeometry x="220" y="1120" width="80" height="40" as="geometry" />
        </mxCell>
        <mxCell id="ENTtIncBovZt0sLsYfHK-108" style="edgeStyle=orthogonalEdgeStyle;rounded=0;orthogonalLoop=1;jettySize=auto;html=1;entryX=0.75;entryY=1;entryDx=0;entryDy=0;fontSize=32;" parent="1" source="ENTtIncBovZt0sLsYfHK-77" target="ENTtIncBovZt0sLsYfHK-103" edge="1">
          <mxGeometry relative="1" as="geometry">
            <Array as="points">
              <mxPoint x="420" y="1180" />
              <mxPoint x="370" y="1180" />
            </Array>
          </mxGeometry>
        </mxCell>
        <mxCell id="ENTtIncBovZt0sLsYfHK-77" value="" style="rounded=0;whiteSpace=wrap;html=1;fontSize=32;" parent="1" vertex="1">
          <mxGeometry x="380" y="1120" width="80" height="40" as="geometry" />
        </mxCell>
        <mxCell id="ENTtIncBovZt0sLsYfHK-122" style="edgeStyle=orthogonalEdgeStyle;rounded=0;orthogonalLoop=1;jettySize=auto;html=1;entryX=0.25;entryY=0;entryDx=0;entryDy=0;fontSize=32;" parent="1" source="ENTtIncBovZt0sLsYfHK-78" target="ENTtIncBovZt0sLsYfHK-93" edge="1">
          <mxGeometry relative="1" as="geometry" />
        </mxCell>
        <mxCell id="ENTtIncBovZt0sLsYfHK-78" value="" style="rounded=0;whiteSpace=wrap;html=1;fontSize=32;" parent="1" vertex="1">
          <mxGeometry x="540" y="1120" width="80" height="40" as="geometry" />
        </mxCell>
        <mxCell id="ENTtIncBovZt0sLsYfHK-123" style="edgeStyle=orthogonalEdgeStyle;rounded=0;orthogonalLoop=1;jettySize=auto;html=1;entryX=0.75;entryY=0;entryDx=0;entryDy=0;fontSize=32;" parent="1" source="ENTtIncBovZt0sLsYfHK-93" target="ENTtIncBovZt0sLsYfHK-94" edge="1">
          <mxGeometry relative="1" as="geometry" />
        </mxCell>
        <mxCell id="ENTtIncBovZt0sLsYfHK-93" value="x" style="whiteSpace=wrap;html=1;aspect=fixed;fontSize=32;" parent="1" vertex="1">
          <mxGeometry x="560" y="1240" width="80" height="80" as="geometry" />
        </mxCell>
        <mxCell id="ENTtIncBovZt0sLsYfHK-126" style="edgeStyle=orthogonalEdgeStyle;rounded=0;orthogonalLoop=1;jettySize=auto;html=1;entryX=0.5;entryY=0;entryDx=0;entryDy=0;fontSize=32;" parent="1" source="ENTtIncBovZt0sLsYfHK-94" target="ENTtIncBovZt0sLsYfHK-125" edge="1">
          <mxGeometry relative="1" as="geometry" />
        </mxCell>
        <mxCell id="ENTtIncBovZt0sLsYfHK-94" value="+" style="whiteSpace=wrap;html=1;aspect=fixed;fontSize=32;" parent="1" vertex="1">
          <mxGeometry x="540" y="1560" width="80" height="80" as="geometry" />
        </mxCell>
        <mxCell id="ENTtIncBovZt0sLsYfHK-121" style="edgeStyle=orthogonalEdgeStyle;rounded=0;orthogonalLoop=1;jettySize=auto;html=1;entryX=0.5;entryY=0;entryDx=0;entryDy=0;fontSize=32;" parent="1" source="ENTtIncBovZt0sLsYfHK-96" target="ENTtIncBovZt0sLsYfHK-119" edge="1">
          <mxGeometry relative="1" as="geometry" />
        </mxCell>
        <mxCell id="ENTtIncBovZt0sLsYfHK-96" value="x" style="whiteSpace=wrap;html=1;aspect=fixed;fontSize=32;" parent="1" vertex="1">
          <mxGeometry x="300" y="1320" width="80" height="80" as="geometry" />
        </mxCell>
        <mxCell id="ENTtIncBovZt0sLsYfHK-104" style="edgeStyle=orthogonalEdgeStyle;rounded=0;orthogonalLoop=1;jettySize=auto;html=1;entryX=0.75;entryY=0;entryDx=0;entryDy=0;fontSize=32;" parent="1" source="ENTtIncBovZt0sLsYfHK-103" target="ENTtIncBovZt0sLsYfHK-96" edge="1">
          <mxGeometry relative="1" as="geometry" />
        </mxCell>
        <mxCell id="ENTtIncBovZt0sLsYfHK-103" value="" style="shape=trapezoid;perimeter=trapezoidPerimeter;whiteSpace=wrap;html=1;fixedSize=1;rotation=-180;fontSize=32;" parent="1" vertex="1">
          <mxGeometry x="350" y="1240" width="80" height="40" as="geometry" />
        </mxCell>
        <mxCell id="ENTtIncBovZt0sLsYfHK-106" style="edgeStyle=orthogonalEdgeStyle;rounded=0;orthogonalLoop=1;jettySize=auto;html=1;entryX=0.25;entryY=0;entryDx=0;entryDy=0;fontSize=32;" parent="1" source="ENTtIncBovZt0sLsYfHK-105" target="ENTtIncBovZt0sLsYfHK-96" edge="1">
          <mxGeometry relative="1" as="geometry" />
        </mxCell>
        <mxCell id="ENTtIncBovZt0sLsYfHK-105" value="" style="shape=trapezoid;perimeter=trapezoidPerimeter;whiteSpace=wrap;html=1;fixedSize=1;rotation=-180;fontSize=32;" parent="1" vertex="1">
          <mxGeometry x="250" y="1240" width="80" height="40" as="geometry" />
        </mxCell>
        <mxCell id="ENTtIncBovZt0sLsYfHK-115" style="edgeStyle=orthogonalEdgeStyle;rounded=0;orthogonalLoop=1;jettySize=auto;html=1;exitX=0;exitY=1;exitDx=0;exitDy=0;entryX=0.5;entryY=0;entryDx=0;entryDy=0;fontSize=32;" parent="1" source="ENTtIncBovZt0sLsYfHK-112" target="ENTtIncBovZt0sLsYfHK-75" edge="1">
          <mxGeometry relative="1" as="geometry">
            <Array as="points">
              <mxPoint x="310" y="1040" />
              <mxPoint x="310" y="1060" />
              <mxPoint x="100" y="1060" />
            </Array>
          </mxGeometry>
        </mxCell>
        <mxCell id="ENTtIncBovZt0sLsYfHK-116" style="edgeStyle=orthogonalEdgeStyle;rounded=0;orthogonalLoop=1;jettySize=auto;html=1;exitX=0.25;exitY=1;exitDx=0;exitDy=0;entryX=0.5;entryY=0;entryDx=0;entryDy=0;fontSize=32;" parent="1" source="ENTtIncBovZt0sLsYfHK-112" target="ENTtIncBovZt0sLsYfHK-76" edge="1">
          <mxGeometry relative="1" as="geometry">
            <Array as="points">
              <mxPoint x="330" y="1040" />
              <mxPoint x="330" y="1100" />
              <mxPoint x="260" y="1100" />
            </Array>
          </mxGeometry>
        </mxCell>
        <mxCell id="ENTtIncBovZt0sLsYfHK-117" style="edgeStyle=orthogonalEdgeStyle;rounded=0;orthogonalLoop=1;jettySize=auto;html=1;exitX=0.75;exitY=1;exitDx=0;exitDy=0;entryX=0.5;entryY=0;entryDx=0;entryDy=0;fontSize=32;" parent="1" source="ENTtIncBovZt0sLsYfHK-112" target="ENTtIncBovZt0sLsYfHK-77" edge="1">
          <mxGeometry relative="1" as="geometry">
            <Array as="points">
              <mxPoint x="350" y="1040" />
              <mxPoint x="350" y="1100" />
              <mxPoint x="420" y="1100" />
            </Array>
          </mxGeometry>
        </mxCell>
        <mxCell id="ENTtIncBovZt0sLsYfHK-118" style="edgeStyle=orthogonalEdgeStyle;rounded=0;orthogonalLoop=1;jettySize=auto;html=1;exitX=1;exitY=1;exitDx=0;exitDy=0;entryX=0.5;entryY=0;entryDx=0;entryDy=0;fontSize=32;" parent="1" source="ENTtIncBovZt0sLsYfHK-112" target="ENTtIncBovZt0sLsYfHK-78" edge="1">
          <mxGeometry relative="1" as="geometry">
            <Array as="points">
              <mxPoint x="370" y="1040" />
              <mxPoint x="370" y="1060" />
              <mxPoint x="580" y="1060" />
            </Array>
          </mxGeometry>
        </mxCell>
        <mxCell id="ENTtIncBovZt0sLsYfHK-112" value="" style="shape=trapezoid;perimeter=trapezoidPerimeter;whiteSpace=wrap;html=1;fixedSize=1;rotation=0;fontSize=32;" parent="1" vertex="1">
          <mxGeometry x="300" y="1000" width="80" height="40" as="geometry" />
        </mxCell>
        <mxCell id="ENTtIncBovZt0sLsYfHK-124" style="edgeStyle=orthogonalEdgeStyle;rounded=0;orthogonalLoop=1;jettySize=auto;html=1;exitX=0.75;exitY=1;exitDx=0;exitDy=0;entryX=0.25;entryY=0;entryDx=0;entryDy=0;fontSize=32;" parent="1" source="ENTtIncBovZt0sLsYfHK-119" target="ENTtIncBovZt0sLsYfHK-94" edge="1">
          <mxGeometry relative="1" as="geometry" />
        </mxCell>
        <mxCell id="ENTtIncBovZt0sLsYfHK-138" style="edgeStyle=orthogonalEdgeStyle;rounded=0;orthogonalLoop=1;jettySize=auto;html=1;exitX=0.25;exitY=1;exitDx=0;exitDy=0;fontSize=32;" parent="1" source="ENTtIncBovZt0sLsYfHK-119" target="ENTtIncBovZt0sLsYfHK-137" edge="1">
          <mxGeometry relative="1" as="geometry">
            <Array as="points">
              <mxPoint x="320" y="1520" />
              <mxPoint x="100" y="1520" />
            </Array>
          </mxGeometry>
        </mxCell>
        <mxCell id="ENTtIncBovZt0sLsYfHK-119" value="" style="shape=trapezoid;perimeter=trapezoidPerimeter;whiteSpace=wrap;html=1;fixedSize=1;rotation=0;fontSize=32;" parent="1" vertex="1">
          <mxGeometry x="300" y="1440" width="80" height="40" as="geometry" />
        </mxCell>
        <mxCell id="ENTtIncBovZt0sLsYfHK-127" style="edgeStyle=orthogonalEdgeStyle;rounded=0;orthogonalLoop=1;jettySize=auto;html=1;entryX=0.75;entryY=0;entryDx=0;entryDy=0;fontSize=32;" parent="1" source="ENTtIncBovZt0sLsYfHK-125" target="ENTtIncBovZt0sLsYfHK-93" edge="1">
          <mxGeometry relative="1" as="geometry">
            <Array as="points">
              <mxPoint x="580" y="1800" />
              <mxPoint x="680" y="1800" />
              <mxPoint x="680" y="1200" />
              <mxPoint x="620" y="1200" />
            </Array>
          </mxGeometry>
        </mxCell>
        <mxCell id="ENTtIncBovZt0sLsYfHK-132" style="edgeStyle=orthogonalEdgeStyle;rounded=0;orthogonalLoop=1;jettySize=auto;html=1;entryX=0;entryY=1;entryDx=0;entryDy=0;fontSize=32;" parent="1" source="ENTtIncBovZt0sLsYfHK-125" target="ENTtIncBovZt0sLsYfHK-39" edge="1">
          <mxGeometry relative="1" as="geometry">
            <Array as="points">
              <mxPoint x="580" y="1800" />
              <mxPoint x="680" y="1800" />
              <mxPoint x="680" y="480" />
            </Array>
          </mxGeometry>
        </mxCell>
        <mxCell id="ENTtIncBovZt0sLsYfHK-125" value="" style="rounded=0;whiteSpace=wrap;html=1;fontSize=32;" parent="1" vertex="1">
          <mxGeometry x="540" y="1720" width="80" height="40" as="geometry" />
        </mxCell>
        <mxCell id="ENTtIncBovZt0sLsYfHK-128" value="" style="group;fontSize=32;" parent="1" vertex="1" connectable="0">
          <mxGeometry x="720" y="320" width="120" height="320" as="geometry" />
        </mxCell>
        <mxCell id="ENTtIncBovZt0sLsYfHK-23" value="" style="rounded=0;whiteSpace=wrap;html=1;fontSize=32;" parent="ENTtIncBovZt0sLsYfHK-128" vertex="1">
          <mxGeometry width="120" height="10" as="geometry" />
        </mxCell>
        <mxCell id="ENTtIncBovZt0sLsYfHK-24" value="" style="rounded=0;whiteSpace=wrap;html=1;fontSize=32;" parent="ENTtIncBovZt0sLsYfHK-128" vertex="1">
          <mxGeometry y="10" width="120" height="10" as="geometry" />
        </mxCell>
        <mxCell id="ENTtIncBovZt0sLsYfHK-25" value="" style="rounded=0;whiteSpace=wrap;html=1;fontSize=32;" parent="ENTtIncBovZt0sLsYfHK-128" vertex="1">
          <mxGeometry y="20" width="120" height="10" as="geometry" />
        </mxCell>
        <mxCell id="ENTtIncBovZt0sLsYfHK-26" value="" style="rounded=0;whiteSpace=wrap;html=1;fontSize=32;" parent="ENTtIncBovZt0sLsYfHK-128" vertex="1">
          <mxGeometry y="30" width="120" height="10" as="geometry" />
        </mxCell>
        <mxCell id="ENTtIncBovZt0sLsYfHK-28" value="" style="rounded=0;whiteSpace=wrap;html=1;fontSize=32;" parent="ENTtIncBovZt0sLsYfHK-128" vertex="1">
          <mxGeometry y="40" width="120" height="10" as="geometry" />
        </mxCell>
        <mxCell id="ENTtIncBovZt0sLsYfHK-29" value="" style="rounded=0;whiteSpace=wrap;html=1;fontSize=32;" parent="ENTtIncBovZt0sLsYfHK-128" vertex="1">
          <mxGeometry y="50" width="120" height="10" as="geometry" />
        </mxCell>
        <mxCell id="ENTtIncBovZt0sLsYfHK-30" value="" style="rounded=0;whiteSpace=wrap;html=1;fontSize=32;" parent="ENTtIncBovZt0sLsYfHK-128" vertex="1">
          <mxGeometry y="60" width="120" height="10" as="geometry" />
        </mxCell>
        <mxCell id="ENTtIncBovZt0sLsYfHK-31" value="" style="rounded=0;whiteSpace=wrap;html=1;fontSize=32;" parent="ENTtIncBovZt0sLsYfHK-128" vertex="1">
          <mxGeometry y="70" width="120" height="10" as="geometry" />
        </mxCell>
        <mxCell id="ENTtIncBovZt0sLsYfHK-32" value="" style="rounded=0;whiteSpace=wrap;html=1;fontSize=32;" parent="ENTtIncBovZt0sLsYfHK-128" vertex="1">
          <mxGeometry y="80" width="120" height="10" as="geometry" />
        </mxCell>
        <mxCell id="ENTtIncBovZt0sLsYfHK-33" value="" style="rounded=0;whiteSpace=wrap;html=1;fontSize=32;" parent="ENTtIncBovZt0sLsYfHK-128" vertex="1">
          <mxGeometry y="90" width="120" height="10" as="geometry" />
        </mxCell>
        <mxCell id="ENTtIncBovZt0sLsYfHK-34" value="" style="rounded=0;whiteSpace=wrap;html=1;fontSize=32;" parent="ENTtIncBovZt0sLsYfHK-128" vertex="1">
          <mxGeometry y="100" width="120" height="10" as="geometry" />
        </mxCell>
        <mxCell id="ENTtIncBovZt0sLsYfHK-35" value="" style="rounded=0;whiteSpace=wrap;html=1;fontSize=32;" parent="ENTtIncBovZt0sLsYfHK-128" vertex="1">
          <mxGeometry y="110" width="120" height="10" as="geometry" />
        </mxCell>
        <mxCell id="ENTtIncBovZt0sLsYfHK-36" value="" style="rounded=0;whiteSpace=wrap;html=1;fontSize=32;" parent="ENTtIncBovZt0sLsYfHK-128" vertex="1">
          <mxGeometry y="120" width="120" height="10" as="geometry" />
        </mxCell>
        <mxCell id="ENTtIncBovZt0sLsYfHK-37" value="" style="rounded=0;whiteSpace=wrap;html=1;fontSize=32;" parent="ENTtIncBovZt0sLsYfHK-128" vertex="1">
          <mxGeometry y="130" width="120" height="10" as="geometry" />
        </mxCell>
        <mxCell id="ENTtIncBovZt0sLsYfHK-38" value="" style="rounded=0;whiteSpace=wrap;html=1;fontSize=32;" parent="ENTtIncBovZt0sLsYfHK-128" vertex="1">
          <mxGeometry y="140" width="120" height="10" as="geometry" />
        </mxCell>
        <mxCell id="ENTtIncBovZt0sLsYfHK-39" value="" style="rounded=0;whiteSpace=wrap;html=1;fontSize=32;" parent="ENTtIncBovZt0sLsYfHK-128" vertex="1">
          <mxGeometry y="150" width="120" height="10" as="geometry" />
        </mxCell>
        <mxCell id="ENTtIncBovZt0sLsYfHK-56" value="" style="rounded=0;whiteSpace=wrap;html=1;fontSize=32;" parent="ENTtIncBovZt0sLsYfHK-128" vertex="1">
          <mxGeometry y="160" width="120" height="10" as="geometry" />
        </mxCell>
        <mxCell id="ENTtIncBovZt0sLsYfHK-57" value="" style="rounded=0;whiteSpace=wrap;html=1;fontSize=32;" parent="ENTtIncBovZt0sLsYfHK-128" vertex="1">
          <mxGeometry y="170" width="120" height="10" as="geometry" />
        </mxCell>
        <mxCell id="ENTtIncBovZt0sLsYfHK-58" value="" style="rounded=0;whiteSpace=wrap;html=1;fontSize=32;" parent="ENTtIncBovZt0sLsYfHK-128" vertex="1">
          <mxGeometry y="180" width="120" height="10" as="geometry" />
        </mxCell>
        <mxCell id="ENTtIncBovZt0sLsYfHK-59" value="" style="rounded=0;whiteSpace=wrap;html=1;fontSize=32;" parent="ENTtIncBovZt0sLsYfHK-128" vertex="1">
          <mxGeometry y="190" width="120" height="10" as="geometry" />
        </mxCell>
        <mxCell id="ENTtIncBovZt0sLsYfHK-60" value="" style="rounded=0;whiteSpace=wrap;html=1;fontSize=32;" parent="ENTtIncBovZt0sLsYfHK-128" vertex="1">
          <mxGeometry y="200" width="120" height="10" as="geometry" />
        </mxCell>
        <mxCell id="ENTtIncBovZt0sLsYfHK-61" value="" style="rounded=0;whiteSpace=wrap;html=1;fontSize=32;" parent="ENTtIncBovZt0sLsYfHK-128" vertex="1">
          <mxGeometry y="210" width="120" height="10" as="geometry" />
        </mxCell>
        <mxCell id="ENTtIncBovZt0sLsYfHK-62" value="" style="rounded=0;whiteSpace=wrap;html=1;fontSize=32;" parent="ENTtIncBovZt0sLsYfHK-128" vertex="1">
          <mxGeometry y="220" width="120" height="10" as="geometry" />
        </mxCell>
        <mxCell id="ENTtIncBovZt0sLsYfHK-63" value="" style="rounded=0;whiteSpace=wrap;html=1;fontSize=32;" parent="ENTtIncBovZt0sLsYfHK-128" vertex="1">
          <mxGeometry y="230" width="120" height="10" as="geometry" />
        </mxCell>
        <mxCell id="ENTtIncBovZt0sLsYfHK-64" value="" style="rounded=0;whiteSpace=wrap;html=1;fontSize=32;" parent="ENTtIncBovZt0sLsYfHK-128" vertex="1">
          <mxGeometry y="240" width="120" height="10" as="geometry" />
        </mxCell>
        <mxCell id="ENTtIncBovZt0sLsYfHK-65" value="" style="rounded=0;whiteSpace=wrap;html=1;fontSize=32;" parent="ENTtIncBovZt0sLsYfHK-128" vertex="1">
          <mxGeometry y="250" width="120" height="10" as="geometry" />
        </mxCell>
        <mxCell id="ENTtIncBovZt0sLsYfHK-66" value="" style="rounded=0;whiteSpace=wrap;html=1;fontSize=32;" parent="ENTtIncBovZt0sLsYfHK-128" vertex="1">
          <mxGeometry y="260" width="120" height="10" as="geometry" />
        </mxCell>
        <mxCell id="ENTtIncBovZt0sLsYfHK-67" value="" style="rounded=0;whiteSpace=wrap;html=1;fontSize=32;" parent="ENTtIncBovZt0sLsYfHK-128" vertex="1">
          <mxGeometry y="270" width="120" height="10" as="geometry" />
        </mxCell>
        <mxCell id="ENTtIncBovZt0sLsYfHK-68" value="" style="rounded=0;whiteSpace=wrap;html=1;fontSize=32;" parent="ENTtIncBovZt0sLsYfHK-128" vertex="1">
          <mxGeometry y="280" width="120" height="10" as="geometry" />
        </mxCell>
        <mxCell id="ENTtIncBovZt0sLsYfHK-69" value="" style="rounded=0;whiteSpace=wrap;html=1;fontSize=32;" parent="ENTtIncBovZt0sLsYfHK-128" vertex="1">
          <mxGeometry y="290" width="120" height="10" as="geometry" />
        </mxCell>
        <mxCell id="ENTtIncBovZt0sLsYfHK-70" value="" style="rounded=0;whiteSpace=wrap;html=1;fontSize=32;" parent="ENTtIncBovZt0sLsYfHK-128" vertex="1">
          <mxGeometry y="300" width="120" height="10" as="geometry" />
        </mxCell>
        <mxCell id="ENTtIncBovZt0sLsYfHK-71" value="" style="rounded=0;whiteSpace=wrap;html=1;fontSize=32;" parent="ENTtIncBovZt0sLsYfHK-128" vertex="1">
          <mxGeometry y="310" width="120" height="10" as="geometry" />
        </mxCell>
        <mxCell id="ENTtIncBovZt0sLsYfHK-133" style="edgeStyle=orthogonalEdgeStyle;rounded=0;orthogonalLoop=1;jettySize=auto;html=1;entryX=0.75;entryY=0;entryDx=0;entryDy=0;fontSize=32;" parent="1" source="ENTtIncBovZt0sLsYfHK-39" target="ENTtIncBovZt0sLsYfHK-73" edge="1">
          <mxGeometry relative="1" as="geometry">
            <Array as="points">
              <mxPoint x="880" y="480" />
              <mxPoint x="880" y="680" />
              <mxPoint x="380" y="680" />
            </Array>
          </mxGeometry>
        </mxCell>
        <mxCell id="ENTtIncBovZt0sLsYfHK-135" style="edgeStyle=orthogonalEdgeStyle;rounded=0;orthogonalLoop=1;jettySize=auto;html=1;entryX=0.25;entryY=1;entryDx=0;entryDy=0;fontSize=32;" parent="1" source="ENTtIncBovZt0sLsYfHK-56" target="ENTtIncBovZt0sLsYfHK-103" edge="1">
          <mxGeometry relative="1" as="geometry">
            <Array as="points">
              <mxPoint x="880" y="480" />
              <mxPoint x="880" y="1220" />
              <mxPoint x="410" y="1220" />
            </Array>
          </mxGeometry>
        </mxCell>
        <mxCell id="ENTtIncBovZt0sLsYfHK-139" style="edgeStyle=orthogonalEdgeStyle;rounded=0;orthogonalLoop=1;jettySize=auto;html=1;entryX=0.25;entryY=0;entryDx=0;entryDy=0;fontSize=32;" parent="1" source="ENTtIncBovZt0sLsYfHK-137" target="ENTtIncBovZt0sLsYfHK-1" edge="1">
          <mxGeometry relative="1" as="geometry">
            <Array as="points">
              <mxPoint x="100" y="1800" />
              <mxPoint x="10" y="1800" />
              <mxPoint x="10" y="-40" />
              <mxPoint x="280" y="-40" />
            </Array>
          </mxGeometry>
        </mxCell>
        <mxCell id="ENTtIncBovZt0sLsYfHK-137" value="" style="rounded=0;whiteSpace=wrap;html=1;fontSize=32;" parent="1" vertex="1">
          <mxGeometry x="60" y="1720" width="80" height="40" as="geometry" />
        </mxCell>
        <mxCell id="SjGZ7XnzuUCKEzDJ_2xf-1" value="x4" style="rounded=0;whiteSpace=wrap;html=1;fontSize=32;" vertex="1" parent="1">
          <mxGeometry x="600" y="-240" width="80" height="40" as="geometry" />
        </mxCell>
        <mxCell id="SjGZ7XnzuUCKEzDJ_2xf-2" value="x5" style="rounded=0;whiteSpace=wrap;html=1;fontSize=32;" vertex="1" parent="1">
          <mxGeometry x="600" y="-200" width="80" height="40" as="geometry" />
        </mxCell>
        <mxCell id="SjGZ7XnzuUCKEzDJ_2xf-4" value="x6" style="rounded=0;whiteSpace=wrap;html=1;fontSize=32;" vertex="1" parent="1">
          <mxGeometry x="600" y="-160" width="80" height="40" as="geometry" />
        </mxCell>
        <mxCell id="SjGZ7XnzuUCKEzDJ_2xf-5" value="x7" style="rounded=0;whiteSpace=wrap;html=1;fontSize=32;" vertex="1" parent="1">
          <mxGeometry x="600" y="-120" width="80" height="40" as="geometry" />
        </mxCell>
        <mxCell id="SjGZ7XnzuUCKEzDJ_2xf-6" value="x9" style="rounded=0;whiteSpace=wrap;html=1;fontSize=32;" vertex="1" parent="1">
          <mxGeometry x="600" y="-40" width="80" height="40" as="geometry" />
        </mxCell>
        <mxCell id="SjGZ7XnzuUCKEzDJ_2xf-8" value="x8" style="rounded=0;whiteSpace=wrap;html=1;fontSize=32;" vertex="1" parent="1">
          <mxGeometry x="600" y="-80" width="80" height="40" as="geometry" />
        </mxCell>
        <mxCell id="SjGZ7XnzuUCKEzDJ_2xf-9" value="x0" style="rounded=0;whiteSpace=wrap;html=1;fontSize=32;" vertex="1" parent="1">
          <mxGeometry x="600" y="-400" width="80" height="40" as="geometry" />
        </mxCell>
        <mxCell id="SjGZ7XnzuUCKEzDJ_2xf-10" value="x1" style="rounded=0;whiteSpace=wrap;html=1;fontSize=32;" vertex="1" parent="1">
          <mxGeometry x="600" y="-360" width="80" height="40" as="geometry" />
        </mxCell>
        <mxCell id="SjGZ7XnzuUCKEzDJ_2xf-24" style="edgeStyle=orthogonalEdgeStyle;rounded=0;orthogonalLoop=1;jettySize=auto;html=1;entryX=0.75;entryY=1;entryDx=0;entryDy=0;" edge="1" parent="1" source="SjGZ7XnzuUCKEzDJ_2xf-11" target="SjGZ7XnzuUCKEzDJ_2xf-13">
          <mxGeometry relative="1" as="geometry" />
        </mxCell>
        <mxCell id="SjGZ7XnzuUCKEzDJ_2xf-11" value="x2" style="rounded=0;whiteSpace=wrap;html=1;fontSize=32;" vertex="1" parent="1">
          <mxGeometry x="600" y="-320" width="80" height="40" as="geometry" />
        </mxCell>
        <mxCell id="SjGZ7XnzuUCKEzDJ_2xf-12" value="x3" style="rounded=0;whiteSpace=wrap;html=1;fontSize=32;" vertex="1" parent="1">
          <mxGeometry x="600" y="-280" width="80" height="40" as="geometry" />
        </mxCell>
        <mxCell id="SjGZ7XnzuUCKEzDJ_2xf-27" style="edgeStyle=orthogonalEdgeStyle;rounded=0;orthogonalLoop=1;jettySize=auto;html=1;entryX=0.75;entryY=0;entryDx=0;entryDy=0;" edge="1" parent="1" source="SjGZ7XnzuUCKEzDJ_2xf-13" target="ENTtIncBovZt0sLsYfHK-2">
          <mxGeometry relative="1" as="geometry" />
        </mxCell>
        <mxCell id="SjGZ7XnzuUCKEzDJ_2xf-13" value="" style="shape=trapezoid;perimeter=trapezoidPerimeter;whiteSpace=wrap;html=1;fixedSize=1;rotation=-90;" vertex="1" parent="1">
          <mxGeometry x="340" y="-220" width="400" height="40" as="geometry" />
        </mxCell>
        <mxCell id="SjGZ7XnzuUCKEzDJ_2xf-16" style="edgeStyle=orthogonalEdgeStyle;rounded=0;orthogonalLoop=1;jettySize=auto;html=1;entryX=0.048;entryY=1.05;entryDx=0;entryDy=0;entryPerimeter=0;" edge="1" parent="1" source="SjGZ7XnzuUCKEzDJ_2xf-6" target="SjGZ7XnzuUCKEzDJ_2xf-13">
          <mxGeometry relative="1" as="geometry" />
        </mxCell>
        <mxCell id="SjGZ7XnzuUCKEzDJ_2xf-17" style="edgeStyle=orthogonalEdgeStyle;rounded=0;orthogonalLoop=1;jettySize=auto;html=1;" edge="1" parent="1" source="SjGZ7XnzuUCKEzDJ_2xf-8">
          <mxGeometry relative="1" as="geometry">
            <mxPoint x="559" y="-60" as="targetPoint" />
          </mxGeometry>
        </mxCell>
        <mxCell id="SjGZ7XnzuUCKEzDJ_2xf-18" style="edgeStyle=orthogonalEdgeStyle;rounded=0;orthogonalLoop=1;jettySize=auto;html=1;entryX=0.25;entryY=1;entryDx=0;entryDy=0;" edge="1" parent="1" source="SjGZ7XnzuUCKEzDJ_2xf-5" target="SjGZ7XnzuUCKEzDJ_2xf-13">
          <mxGeometry relative="1" as="geometry" />
        </mxCell>
        <mxCell id="SjGZ7XnzuUCKEzDJ_2xf-20" style="edgeStyle=orthogonalEdgeStyle;rounded=0;orthogonalLoop=1;jettySize=auto;html=1;entryX=0.35;entryY=1;entryDx=0;entryDy=0;entryPerimeter=0;" edge="1" parent="1" source="SjGZ7XnzuUCKEzDJ_2xf-4" target="SjGZ7XnzuUCKEzDJ_2xf-13">
          <mxGeometry relative="1" as="geometry" />
        </mxCell>
        <mxCell id="SjGZ7XnzuUCKEzDJ_2xf-21" style="edgeStyle=orthogonalEdgeStyle;rounded=0;orthogonalLoop=1;jettySize=auto;html=1;entryX=0.448;entryY=1.05;entryDx=0;entryDy=0;entryPerimeter=0;" edge="1" parent="1" source="SjGZ7XnzuUCKEzDJ_2xf-2" target="SjGZ7XnzuUCKEzDJ_2xf-13">
          <mxGeometry relative="1" as="geometry" />
        </mxCell>
        <mxCell id="SjGZ7XnzuUCKEzDJ_2xf-22" style="edgeStyle=orthogonalEdgeStyle;rounded=0;orthogonalLoop=1;jettySize=auto;html=1;entryX=0.55;entryY=1.05;entryDx=0;entryDy=0;entryPerimeter=0;" edge="1" parent="1" source="SjGZ7XnzuUCKEzDJ_2xf-1" target="SjGZ7XnzuUCKEzDJ_2xf-13">
          <mxGeometry relative="1" as="geometry" />
        </mxCell>
        <mxCell id="SjGZ7XnzuUCKEzDJ_2xf-23" style="edgeStyle=orthogonalEdgeStyle;rounded=0;orthogonalLoop=1;jettySize=auto;html=1;entryX=0.65;entryY=1.025;entryDx=0;entryDy=0;entryPerimeter=0;" edge="1" parent="1" source="SjGZ7XnzuUCKEzDJ_2xf-12" target="SjGZ7XnzuUCKEzDJ_2xf-13">
          <mxGeometry relative="1" as="geometry" />
        </mxCell>
        <mxCell id="SjGZ7XnzuUCKEzDJ_2xf-25" style="edgeStyle=orthogonalEdgeStyle;rounded=0;orthogonalLoop=1;jettySize=auto;html=1;entryX=0.848;entryY=1.05;entryDx=0;entryDy=0;entryPerimeter=0;" edge="1" parent="1" source="SjGZ7XnzuUCKEzDJ_2xf-10" target="SjGZ7XnzuUCKEzDJ_2xf-13">
          <mxGeometry relative="1" as="geometry" />
        </mxCell>
        <mxCell id="SjGZ7XnzuUCKEzDJ_2xf-26" style="edgeStyle=orthogonalEdgeStyle;rounded=0;orthogonalLoop=1;jettySize=auto;html=1;entryX=0.95;entryY=1;entryDx=0;entryDy=0;entryPerimeter=0;" edge="1" parent="1" source="SjGZ7XnzuUCKEzDJ_2xf-9" target="SjGZ7XnzuUCKEzDJ_2xf-13">
          <mxGeometry relative="1" as="geometry" />
        </mxCell>
        <mxCell id="SjGZ7XnzuUCKEzDJ_2xf-30" value="" style="edgeStyle=orthogonalEdgeStyle;rounded=0;orthogonalLoop=1;jettySize=auto;html=1;entryX=0.25;entryY=0;entryDx=0;entryDy=0;" edge="1" parent="1" source="SjGZ7XnzuUCKEzDJ_2xf-29" target="ENTtIncBovZt0sLsYfHK-2">
          <mxGeometry relative="1" as="geometry">
            <Array as="points">
              <mxPoint x="400" y="-10" />
              <mxPoint x="400" y="-10" />
            </Array>
          </mxGeometry>
        </mxCell>
        <mxCell id="SjGZ7XnzuUCKEzDJ_2xf-29" value="w&lt;font style=&quot;font-size: 24px;&quot;&gt;x&lt;/font&gt;" style="text;html=1;align=center;verticalAlign=middle;whiteSpace=wrap;rounded=0;fontSize=32;" vertex="1" parent="1">
          <mxGeometry x="370" y="-70" width="60" height="30" as="geometry" />
        </mxCell>
        <mxCell id="SjGZ7XnzuUCKEzDJ_2xf-31" value="" style="edgeStyle=orthogonalEdgeStyle;rounded=0;orthogonalLoop=1;jettySize=auto;html=1;entryX=0.75;entryY=0;entryDx=0;entryDy=0;" edge="1" parent="1" source="SjGZ7XnzuUCKEzDJ_2xf-32" target="ENTtIncBovZt0sLsYfHK-1">
          <mxGeometry relative="1" as="geometry">
            <mxPoint x="410" y="10" as="targetPoint" />
            <Array as="points">
              <mxPoint x="320" />
            </Array>
          </mxGeometry>
        </mxCell>
        <mxCell id="SjGZ7XnzuUCKEzDJ_2xf-32" value="w&lt;font style=&quot;font-size: 24px;&quot;&gt;h&lt;/font&gt;" style="text;html=1;align=center;verticalAlign=middle;whiteSpace=wrap;rounded=0;fontSize=32;" vertex="1" parent="1">
          <mxGeometry x="290" y="-70" width="60" height="30" as="geometry" />
        </mxCell>
        <mxCell id="SjGZ7XnzuUCKEzDJ_2xf-34" value="" style="edgeStyle=orthogonalEdgeStyle;rounded=0;orthogonalLoop=1;jettySize=auto;html=1;entryX=0.25;entryY=0;entryDx=0;entryDy=0;" edge="1" source="SjGZ7XnzuUCKEzDJ_2xf-35" parent="1">
          <mxGeometry relative="1" as="geometry">
            <mxPoint x="460" y="160" as="targetPoint" />
            <Array as="points">
              <mxPoint x="460" y="150" />
              <mxPoint x="460" y="150" />
            </Array>
          </mxGeometry>
        </mxCell>
        <mxCell id="SjGZ7XnzuUCKEzDJ_2xf-35" value="B&lt;font style=&quot;font-size: 24px;&quot;&gt;x&lt;/font&gt;" style="text;html=1;align=center;verticalAlign=middle;whiteSpace=wrap;rounded=0;fontSize=32;" vertex="1" parent="1">
          <mxGeometry x="430" y="90" width="60" height="30" as="geometry" />
        </mxCell>
        <mxCell id="SjGZ7XnzuUCKEzDJ_2xf-36" value="" style="edgeStyle=orthogonalEdgeStyle;rounded=0;orthogonalLoop=1;jettySize=auto;html=1;entryX=0.25;entryY=0;entryDx=0;entryDy=0;" edge="1" source="SjGZ7XnzuUCKEzDJ_2xf-37" parent="1">
          <mxGeometry relative="1" as="geometry">
            <mxPoint x="260" y="160" as="targetPoint" />
            <Array as="points">
              <mxPoint x="260" y="150" />
              <mxPoint x="260" y="150" />
            </Array>
          </mxGeometry>
        </mxCell>
        <mxCell id="SjGZ7XnzuUCKEzDJ_2xf-37" value="B&lt;font style=&quot;font-size: 24px;&quot;&gt;h&lt;/font&gt;" style="text;html=1;align=center;verticalAlign=middle;whiteSpace=wrap;rounded=0;fontSize=32;" vertex="1" parent="1">
          <mxGeometry x="230" y="90" width="60" height="30" as="geometry" />
        </mxCell>
        <mxCell id="SjGZ7XnzuUCKEzDJ_2xf-38" value="" style="edgeStyle=orthogonalEdgeStyle;rounded=0;orthogonalLoop=1;jettySize=auto;html=1;entryX=0.25;entryY=0;entryDx=0;entryDy=0;" edge="1" source="SjGZ7XnzuUCKEzDJ_2xf-39" parent="1">
          <mxGeometry relative="1" as="geometry">
            <mxPoint x="340" y="720" as="targetPoint" />
            <Array as="points">
              <mxPoint x="340" y="710" />
              <mxPoint x="340" y="710" />
            </Array>
          </mxGeometry>
        </mxCell>
        <mxCell id="SjGZ7XnzuUCKEzDJ_2xf-39" value="0.5" style="text;html=1;align=center;verticalAlign=middle;whiteSpace=wrap;rounded=0;fontSize=32;" vertex="1" parent="1">
          <mxGeometry x="310" y="650" width="60" height="30" as="geometry" />
        </mxCell>
        <mxCell id="SjGZ7XnzuUCKEzDJ_2xf-40" value="" style="edgeStyle=orthogonalEdgeStyle;rounded=0;orthogonalLoop=1;jettySize=auto;html=1;entryX=0.25;entryY=0;entryDx=0;entryDy=0;" edge="1" parent="1" source="SjGZ7XnzuUCKEzDJ_2xf-41">
          <mxGeometry relative="1" as="geometry">
            <mxPoint x="320" y="880" as="targetPoint" />
            <Array as="points">
              <mxPoint x="320" y="870" />
              <mxPoint x="320" y="870" />
            </Array>
          </mxGeometry>
        </mxCell>
        <mxCell id="SjGZ7XnzuUCKEzDJ_2xf-41" value="0.5" style="text;html=1;align=center;verticalAlign=middle;whiteSpace=wrap;rounded=0;fontSize=32;" vertex="1" parent="1">
          <mxGeometry x="290" y="810" width="60" height="30" as="geometry" />
        </mxCell>
      </root>
    </mxGraphModel>
  </diagram>
</mxfile>
